<?xml version="1.0" encoding="utf-8"?>
<!-- Generator: Adobe Illustrator 24.0.0, SVG Export Plug-In . SVG Version: 6.00 Build 0)  -->
<svg version="1.1" id="Layer_1" xmlns="http://www.w3.org/2000/svg" xmlns:xlink="http://www.w3.org/1999/xlink" x="0px" y="0px"
	 viewBox="0 0 960 110" style="enable-background:new 0 0 960 110;" xml:space="preserve">
<style type="text/css">
	.st0{fill:#7EC2DB;}
</style>
<path class="st0" d="M414.75,51.85c-16.37,0-31.91-3.63-46.85-10.9c-29.59-14.4-59.76-8.49-87.95,0.03
	c-30.72,9.29-55.73,14.69-98.02-0.45c-42.19-15.11-61.31-12.7-105.16,3.45c-43.16,15.89-76.66,0.14-77-0.02l0.43-0.9
	c11.41,5.5,42.02,12.57,76.22-0.02c44.11-16.24,63.35-18.67,105.84-3.45c42.1,15.08,65.89,9.96,97.39,0.44
	c28.38-8.58,58.77-14.52,88.67,0.03c29.6,14.4,61.6,14.4,97.83-0.01c34.1-13.57,70.18-13.56,101.59,0.01
	c26.7,11.53,56.76,11.53,86.94-0.01c24.1-9.21,53.73-16.42,90.68,0.01c30.46,13.54,62.38,13.54,94.86,0
	c0.08-0.05,13.17-7.31,34.36-10.28c19.53-2.75,50.16-2.32,85.13,15.3l-0.45,0.89c-19.16-9.66-49.38-20.13-84.5-15.21
	c-21.01,2.95-33.98,10.13-34.1,10.2c-32.8,13.68-64.98,13.68-95.7,0.02c-36.62-16.28-66-9.13-89.91,0.01
	c-30.43,11.63-60.75,11.63-87.69-0.01C536.2,27.5,500.39,27.5,466.54,40.96C448.29,48.22,431.11,51.85,414.75,51.85z"/>
<path class="st0" d="M414.75,25.85c-16.37,0-31.91-3.63-46.85-10.9c-29.59-14.4-59.76-8.49-87.95,0.03
	c-30.72,9.29-55.73,14.69-98.02-0.45c-42.19-15.11-61.31-12.7-105.16,3.45c-43.16,15.89-76.66,0.14-77-0.02l0.43-0.9
	c11.41,5.5,42.02,12.57,76.22-0.02c44.11-16.24,63.35-18.67,105.84-3.45c42.1,15.08,65.89,9.96,97.39,0.44
	c28.38-8.58,58.77-14.52,88.67,0.03c29.6,14.4,61.6,14.4,97.83-0.01c34.1-13.57,70.18-13.56,101.59,0.01
	c26.7,11.53,56.76,11.53,86.94-0.01c24.1-9.21,53.73-16.42,90.68,0.01c30.46,13.54,62.38,13.54,94.86,0
	c0.08-0.05,13.17-7.31,34.36-10.28c19.53-2.75,50.16-2.32,85.13,15.3l-0.45,0.89c-19.16-9.66-49.38-20.14-84.5-15.21
	c-21.01,2.95-33.98,10.13-34.1,10.2c-32.8,13.68-64.98,13.68-95.7,0.02c-36.62-16.28-66-9.13-89.91,0.01
	c-30.43,11.63-60.75,11.63-87.69-0.01C536.2,1.5,500.39,1.5,466.54,14.96C448.29,22.22,431.11,25.85,414.75,25.85z"/>
<path class="st0" d="M414.75,80.85c-16.37,0-31.91-3.63-46.85-10.9c-29.59-14.4-59.76-8.49-87.95,0.03
	c-30.72,9.29-55.73,14.69-98.02-0.45c-42.19-15.11-61.31-12.7-105.16,3.44c-43.16,15.89-76.66,0.14-77-0.02l0.43-0.9
	c11.41,5.5,42.02,12.57,76.22-0.02c44.11-16.24,63.35-18.66,105.84-3.45c42.1,15.08,65.89,9.96,97.39,0.44
	c28.38-8.58,58.77-14.52,88.67,0.03c29.6,14.4,61.6,14.4,97.83-0.02c34.1-13.56,70.18-13.56,101.59,0.01
	c26.7,11.53,56.76,11.53,86.94-0.01c24.1-9.21,53.73-16.42,90.68,0.01c30.46,13.54,62.38,13.54,94.86,0
	c0.08-0.05,13.17-7.3,34.36-10.28c19.53-2.75,50.16-2.32,85.13,15.3l-0.45,0.89c-19.16-9.66-49.38-20.14-84.5-15.21
	c-21.01,2.95-33.98,10.12-34.1,10.2c-32.8,13.68-64.98,13.68-95.7,0.02c-36.62-16.28-66-9.13-89.91,0.01
	c-30.43,11.63-60.75,11.63-87.69-0.01C536.2,56.5,500.39,56.5,466.54,69.96C448.29,77.22,431.11,80.85,414.75,80.85z"/>
<path class="st0" d="M414.75,104.85c-16.37,0-31.91-3.63-46.85-10.9c-29.59-14.4-59.76-8.49-87.95,0.03
	c-30.72,9.29-55.73,14.69-98.02-0.45c-42.19-15.11-61.31-12.7-105.16,3.44c-43.16,15.89-76.66,0.14-77-0.02l0.43-0.9
	c11.41,5.5,42.02,12.57,76.22-0.02c44.11-16.24,63.35-18.66,105.84-3.45c42.1,15.08,65.89,9.96,97.39,0.44
	c28.38-8.58,58.77-14.52,88.67,0.03c29.6,14.4,61.6,14.4,97.83-0.02c34.1-13.56,70.18-13.56,101.59,0.01
	c26.7,11.53,56.76,11.53,86.94-0.01c24.1-9.22,53.73-16.42,90.68,0.01c30.46,13.54,62.38,13.54,94.86,0
	c0.08-0.05,13.17-7.3,34.36-10.28c19.53-2.75,50.16-2.32,85.13,15.3l-0.45,0.89c-19.16-9.66-49.38-20.13-84.5-15.21
	c-21.01,2.95-33.98,10.12-34.1,10.2c-32.8,13.68-64.98,13.68-95.7,0.02c-36.62-16.28-66-9.13-89.91,0.01
	c-30.43,11.63-60.75,11.63-87.69-0.01C536.2,80.5,500.39,80.5,466.54,93.96C448.29,101.22,431.11,104.85,414.75,104.85z"/>
</svg>
